<?xml version="1.0" encoding="UTF-8"?>
<svg enable-background="new 0 0 17.5 14.663" version="1.0" viewBox="0 0 17.5 14.663" xml:space="preserve" xmlns="http://www.w3.org/2000/svg">
      <path d="m11.283 0.153c1.736-0.484 3.074 0.264 3.685 1.15 0.694-0.225 1.372-0.47 2.072-0.69-4e-3 0.841-0.538 1.478-0.883 1.728 0.704 0.165 1.343-0.481 1.343-0.481-0.175 0.977-1.035 1.746-1.611 1.977-0.239 6.592-3.272 10.956-10.382 10.823h-0.46c-0.422 0-4.29-0.45-5.047-1.843 2.341 0.192 4.011-0.412 4.835-1.15-0.989-0.293-2.761-0.464-3.07-2.881 0.362 0.105 0.583 0.223 1.228 0.117-1.236-0.836-2.608-1.537-2.532-3.685 0.294 0.319 1.1 0.523 1.381 0.461-0.725-0.235-2.03-3.281-0.921-4.836 1.873 1.812 3.848 3.521 7.369 3.685 0.216-2.24 1.171-3.74 2.993-4.375z" clip-rule="evenodd" fill-rule="evenodd"/>
</svg>
